<mxfile host="app.diagrams.net" modified="2024-02-05T12:31:09.485Z" agent="Mozilla/5.0 (X11; Linux x86_64) AppleWebKit/537.36 (KHTML, like Gecko) Chrome/121.0.0.0 Safari/537.36" etag="DgGd2dRrsN9ReQ4WT2sq" version="23.1.1" type="device">
  <diagram id="z2fywuhmsZZxHbe4xA-M" name="Page-1">
    <mxGraphModel dx="1430" dy="821" grid="1" gridSize="10" guides="1" tooltips="1" connect="1" arrows="1" fold="1" page="1" pageScale="1" pageWidth="827" pageHeight="1169" math="0" shadow="0">
      <root>
        <mxCell id="0" />
        <mxCell id="1" parent="0" />
        <mxCell id="TMdRoOH4GbIq7_JRytAd-25" value="Executor&lt;br&gt;Pod" style="ellipse;whiteSpace=wrap;html=1;aspect=fixed;fontSize=12;" parent="1" vertex="1">
          <mxGeometry x="511" y="273" width="56" height="56" as="geometry" />
        </mxCell>
        <mxCell id="TMdRoOH4GbIq7_JRytAd-24" value="Executor&lt;br&gt;Pod" style="ellipse;whiteSpace=wrap;html=1;aspect=fixed;fontSize=12;" parent="1" vertex="1">
          <mxGeometry x="505" y="273" width="56" height="56" as="geometry" />
        </mxCell>
        <mxCell id="TMdRoOH4GbIq7_JRytAd-1" value="Data sanitization&lt;br&gt;service" style="rounded=0;whiteSpace=wrap;html=1;" parent="1" vertex="1">
          <mxGeometry x="222" y="59" width="120" height="60" as="geometry" />
        </mxCell>
        <mxCell id="TMdRoOH4GbIq7_JRytAd-2" value="" style="endArrow=classic;html=1;rounded=0;exitX=0.25;exitY=1;exitDx=0;exitDy=0;entryX=0.25;entryY=0;entryDx=0;entryDy=0;" parent="1" source="TMdRoOH4GbIq7_JRytAd-1" target="TMdRoOH4GbIq7_JRytAd-9" edge="1">
          <mxGeometry width="50" height="50" relative="1" as="geometry">
            <mxPoint x="412" y="389" as="sourcePoint" />
            <mxPoint x="492" y="74" as="targetPoint" />
          </mxGeometry>
        </mxCell>
        <mxCell id="TMdRoOH4GbIq7_JRytAd-16" style="edgeStyle=orthogonalEdgeStyle;rounded=0;orthogonalLoop=1;jettySize=auto;html=1;exitX=0.75;exitY=0;exitDx=0;exitDy=0;entryX=0.75;entryY=1;entryDx=0;entryDy=0;fontSize=12;" parent="1" source="TMdRoOH4GbIq7_JRytAd-3" target="TMdRoOH4GbIq7_JRytAd-9" edge="1">
          <mxGeometry relative="1" as="geometry" />
        </mxCell>
        <mxCell id="TMdRoOH4GbIq7_JRytAd-3" value="Spark operator" style="rounded=0;whiteSpace=wrap;html=1;" parent="1" vertex="1">
          <mxGeometry x="222" y="420" width="120" height="60" as="geometry" />
        </mxCell>
        <mxCell id="TMdRoOH4GbIq7_JRytAd-4" value="" style="endArrow=classic;html=1;entryX=0;entryY=0.25;entryDx=0;entryDy=0;rounded=0;" parent="1" edge="1">
          <mxGeometry width="50" height="50" relative="1" as="geometry">
            <mxPoint x="50" y="74" as="sourcePoint" />
            <mxPoint x="221" y="74" as="targetPoint" />
          </mxGeometry>
        </mxCell>
        <mxCell id="TMdRoOH4GbIq7_JRytAd-5" value="&lt;h1 style=&quot;line-height: 50%;&quot;&gt;&lt;span style=&quot;font-size: 12px; font-weight: 400;&quot;&gt;1. Incoming request for new&amp;nbsp; &amp;nbsp; &amp;nbsp; &amp;nbsp; sanitization job from use&amp;nbsp; &amp;nbsp; &amp;nbsp; &amp;nbsp; &amp;nbsp; case applications&lt;/span&gt;&lt;/h1&gt;" style="text;html=1;strokeColor=none;fillColor=none;spacing=5;spacingTop=-20;whiteSpace=wrap;overflow=hidden;rounded=0;" parent="1" vertex="1">
          <mxGeometry x="48" y="10" width="172" height="59" as="geometry" />
        </mxCell>
        <mxCell id="TMdRoOH4GbIq7_JRytAd-7" value="&lt;h1 style=&quot;line-height: 50%;&quot;&gt;&lt;span style=&quot;font-size: 12px; font-weight: 400;&quot;&gt;2. Create SparkApplication to submit&amp;nbsp; &amp;nbsp; &amp;nbsp; the sanitization job&lt;/span&gt;&lt;/h1&gt;" style="text;html=1;strokeColor=none;fillColor=none;spacing=5;spacingTop=-20;whiteSpace=wrap;overflow=hidden;rounded=0;" parent="1" vertex="1">
          <mxGeometry x="46" y="154" width="209" height="42" as="geometry" />
        </mxCell>
        <mxCell id="TMdRoOH4GbIq7_JRytAd-10" style="edgeStyle=orthogonalEdgeStyle;rounded=0;orthogonalLoop=1;jettySize=auto;html=1;exitX=0.25;exitY=1;exitDx=0;exitDy=0;entryX=0.25;entryY=0;entryDx=0;entryDy=0;" parent="1" source="TMdRoOH4GbIq7_JRytAd-9" target="TMdRoOH4GbIq7_JRytAd-3" edge="1">
          <mxGeometry relative="1" as="geometry">
            <mxPoint x="281" y="310" as="sourcePoint" />
            <mxPoint x="281" y="360" as="targetPoint" />
          </mxGeometry>
        </mxCell>
        <mxCell id="TMdRoOH4GbIq7_JRytAd-9" value="K8s API" style="rounded=0;whiteSpace=wrap;html=1;" parent="1" vertex="1">
          <mxGeometry x="222" y="240" width="120" height="60" as="geometry" />
        </mxCell>
        <mxCell id="TMdRoOH4GbIq7_JRytAd-15" value="&lt;h1 style=&quot;line-height: 50%;&quot;&gt;&lt;span style=&quot;font-size: 12px; font-weight: 400;&quot;&gt;3. Forward request affecting Spark&#39;s&amp;nbsp; &amp;nbsp; &amp;nbsp; CRDs to the Spark operator&lt;/span&gt;&lt;/h1&gt;" style="text;html=1;strokeColor=none;fillColor=none;spacing=5;spacingTop=-20;whiteSpace=wrap;overflow=hidden;rounded=0;" parent="1" vertex="1">
          <mxGeometry x="46" y="341" width="207" height="42" as="geometry" />
        </mxCell>
        <mxCell id="TMdRoOH4GbIq7_JRytAd-17" value="&lt;h1 style=&quot;line-height: 50%;&quot;&gt;&lt;span style=&quot;font-size: 12px; font-weight: 400;&quot;&gt;4. Submit the Spark application to&amp;nbsp; &amp;nbsp; &amp;nbsp; &amp;nbsp; &amp;nbsp; run and creates the driver pod of&amp;nbsp; &amp;nbsp; &amp;nbsp; &amp;nbsp; the application&lt;/span&gt;&lt;/h1&gt;" style="text;html=1;strokeColor=none;fillColor=none;spacing=5;spacingTop=-20;whiteSpace=wrap;overflow=hidden;rounded=0;" parent="1" vertex="1">
          <mxGeometry x="316" y="333" width="207" height="54" as="geometry" />
        </mxCell>
        <mxCell id="TMdRoOH4GbIq7_JRytAd-18" value="" style="endArrow=classic;startArrow=classic;html=1;rounded=0;fontSize=12;entryX=1;entryY=0.25;entryDx=0;entryDy=0;exitX=0;exitY=0.5;exitDx=0;exitDy=0;dashed=1;" parent="1" source="TMdRoOH4GbIq7_JRytAd-21" target="TMdRoOH4GbIq7_JRytAd-9" edge="1">
          <mxGeometry width="50" height="50" relative="1" as="geometry">
            <mxPoint x="500" y="255" as="sourcePoint" />
            <mxPoint x="310" y="290" as="targetPoint" />
          </mxGeometry>
        </mxCell>
        <mxCell id="TMdRoOH4GbIq7_JRytAd-21" value="Driver&lt;br&gt;pod" style="ellipse;whiteSpace=wrap;html=1;aspect=fixed;fontSize=12;" parent="1" vertex="1">
          <mxGeometry x="499" y="200" width="55" height="55" as="geometry" />
        </mxCell>
        <mxCell id="TMdRoOH4GbIq7_JRytAd-22" value="Executor&lt;br&gt;pod" style="ellipse;whiteSpace=wrap;html=1;aspect=fixed;fontSize=12;" parent="1" vertex="1">
          <mxGeometry x="499" y="273" width="56" height="56" as="geometry" />
        </mxCell>
        <mxCell id="TMdRoOH4GbIq7_JRytAd-23" value="" style="endArrow=classic;html=1;rounded=0;fontSize=12;exitX=1;exitY=0.75;exitDx=0;exitDy=0;dashed=1;" parent="1" source="TMdRoOH4GbIq7_JRytAd-9" target="TMdRoOH4GbIq7_JRytAd-22" edge="1">
          <mxGeometry width="50" height="50" relative="1" as="geometry">
            <mxPoint x="700" y="310" as="sourcePoint" />
            <mxPoint x="750" y="260" as="targetPoint" />
          </mxGeometry>
        </mxCell>
        <mxCell id="TMdRoOH4GbIq7_JRytAd-26" value="&lt;h1 style=&quot;line-height: 50%;&quot;&gt;&lt;span style=&quot;font-size: 12px; font-weight: 400;&quot;&gt;5. Create driver pod&lt;/span&gt;&lt;/h1&gt;" style="text;html=1;strokeColor=none;fillColor=none;spacing=5;spacingTop=-20;whiteSpace=wrap;overflow=hidden;rounded=0;align=center;" parent="1" vertex="1">
          <mxGeometry x="359" y="205" width="122" height="32" as="geometry" />
        </mxCell>
        <mxCell id="TMdRoOH4GbIq7_JRytAd-27" value="&lt;h1 style=&quot;line-height: 50%;&quot;&gt;&lt;span style=&quot;font-size: 12px; font-weight: 400;&quot;&gt;6. Create executor pods&lt;/span&gt;&lt;/h1&gt;" style="text;html=1;strokeColor=none;fillColor=none;spacing=5;spacingTop=-20;whiteSpace=wrap;overflow=hidden;rounded=0;align=center;" parent="1" vertex="1">
          <mxGeometry x="347" y="292" width="142" height="42" as="geometry" />
        </mxCell>
      </root>
    </mxGraphModel>
  </diagram>
</mxfile>
